<?xml version="1.0" standalone="no"?>
<!DOCTYPE svg PUBLIC "-//W3C//DTD SVG 20010904//EN"
 "http://www.w3.org/TR/2001/REC-SVG-20010904/DTD/svg10.dtd">
<svg version="1.0" xmlns="http://www.w3.org/2000/svg"
 width="500.000000pt" height="500.000000pt" viewBox="0 0 500.000000 500.000000"
 preserveAspectRatio="xMidYMid meet">

<g transform="translate(0.000000,500.000000) scale(0.100000,-0.100000)"
fill="#000000" stroke="none">
<path d="M1486 2958 c32 -46 71 -101 86 -122 l28 -39 0 -516 c0 -554 -3 -595
-51 -667 -28 -41 -85 -74 -129 -74 -16 0 -30 -4 -30 -10 0 -6 100 -10 280 -10
180 0 280 4 280 10 0 6 -14 10 -30 10 -68 0 -141 49 -185 125 -31 53 -70 189
-84 296 -25 188 -43 790 -23 789 4 -1 146 -201 317 -445 170 -245 312 -445
315 -445 3 0 33 49 67 108 l63 107 0 -417 0 -418 55 0 55 0 0 380 0 380 215 0
215 0 0 -240 0 -240 55 0 55 0 0 240 0 240 260 0 260 0 0 -380 0 -380 55 0 55
0 0 760 0 760 -55 0 -55 0 0 -370 0 -370 -260 0 -260 0 0 510 0 510 -57 0 -58
0 -200 -341 c-110 -188 -205 -349 -212 -358 -10 -13 -12 26 -13 202 l0 217
-55 0 -55 0 0 -317 0 -317 -41 -69 c-23 -38 -44 -65 -49 -60 -4 4 -170 241
-370 526 l-362 517 -70 0 -69 0 57 -82z m1439 -926 c-3 -10 -52 -12 -212 -10
l-208 3 0 125 0 125 139 235 c76 129 171 289 210 355 l71 120 3 -470 c1 -258
0 -476 -3 -483z"/>
<path d="M1736 818 c31 -53 118 -168 126 -168 13 0 11 3 -55 98 -32 45 -63 82
-68 82 -6 0 -7 -6 -3 -12z"/>
<path d="M1960 710 c0 -73 4 -120 10 -120 6 0 10 47 10 120 0 73 -4 120 -10
120 -6 0 -10 -47 -10 -120z"/>
<path d="M2097 823 c-11 -11 -8 -233 3 -233 6 0 10 47 10 120 0 66 -1 120 -3
120 -2 0 -7 -3 -10 -7z"/>
<path d="M2330 821 c19 -4 45 -11 58 -15 12 -4 22 -3 22 2 0 15 -27 22 -73 21
l-42 -1 35 -7z"/>
<path d="M2520 710 c0 -73 4 -120 10 -120 6 0 10 47 10 120 0 73 -4 120 -10
120 -6 0 -10 -47 -10 -120z"/>
<path d="M2707 823 c-11 -11 -8 -233 3 -233 6 0 10 47 10 120 0 66 -1 120 -3
120 -2 0 -7 -3 -10 -7z"/>
<path d="M2930 823 c0 -5 20 -53 45 -108 25 -55 43 -106 40 -112 -3 -9 5 -13
22 -13 24 0 25 1 11 18 -9 9 -35 61 -58 115 -38 87 -60 124 -60 100z"/>
<path d="M3158 818 c16 -16 16 -200 0 -216 -9 -9 -4 -12 23 -11 18 0 28 3 22
6 -8 3 -13 25 -13 58 l0 54 73 4 72 3 -72 2 -73 2 0 43 c0 24 5 48 12 55 9 9
4 12 -22 12 -26 0 -31 -3 -22 -12z"/>
<path d="M3261 826 c12 -10 79 -16 79 -6 0 5 -19 10 -42 10 -23 0 -39 -2 -37
-4z"/>
<path d="M3435 710 l0 -120 24 0 c20 0 22 3 13 12 -16 16 -16 200 0 216 9 9 7
12 -12 12 l-25 0 0 -120z"/>
<path d="M2220 754 c-14 -36 -12 -70 5 -104 16 -31 68 -65 88 -56 7 2 6 5 -4
5 -23 1 -68 53 -78 89 -6 18 -6 45 -1 62 11 37 3 40 -10 4z"/>
<path d="M2866 655 c-10 -25 -25 -49 -34 -55 -13 -7 -8 -9 23 -10 29 0 36 3
25 10 -12 7 -12 16 -3 52 15 57 10 59 -11 3z"/>
<path d="M1750 621 c0 -11 -6 -22 -12 -24 -7 -3 5 -6 27 -6 32 0 36 2 23 10
-10 5 -18 17 -18 24 0 8 -4 15 -10 15 -5 0 -10 -9 -10 -19z"/>
<path d="M2385 604 c-13 -10 -15 -14 -4 -14 20 0 43 16 32 23 -4 3 -17 -1 -28
-9z"/>
<path d="M3290 600 l-35 -7 43 -2 c23 0 42 4 42 9 0 6 -3 9 -7 9 -5 -1 -24 -5
-43 -9z"/>
<path d="M3560 600 l-35 -7 43 -2 c23 0 42 4 42 9 0 6 -3 9 -7 9 -5 -1 -24 -5
-43 -9z"/>
<path d="M2270 381 c0 -74 4 -121 10 -121 6 0 10 45 10 114 0 66 -4 117 -10
121 -6 4 -10 -37 -10 -114z"/>
<path d="M2450 380 c0 -73 4 -120 10 -120 6 0 10 47 10 120 0 73 -4 120 -10
120 -6 0 -10 -47 -10 -120z"/>
<path d="M2586 487 c-5 -10 -6 -54 -4 -98 4 -73 8 -83 33 -107 23 -21 25 -22
10 -4 -16 19 -21 45 -25 125 -4 67 -8 96 -14 84z"/>
<path d="M2770 403 c0 -86 -2 -99 -22 -120 -18 -19 -19 -23 -5 -17 32 12 47
58 47 149 0 50 -4 85 -10 85 -6 0 -10 -39 -10 -97z"/>
<path d="M2898 488 c16 -16 16 -200 0 -216 -9 -9 -4 -12 23 -11 18 0 28 3 22
6 -9 3 -13 36 -13 113 0 77 4 110 13 113 6 3 -4 6 -22 6 -27 1 -32 -2 -23 -11z"/>
<path d="M3023 485 c31 -18 37 -58 11 -86 -12 -14 -13 -18 -2 -25 7 -4 10 -4
6 1 -5 5 1 14 12 22 23 16 27 65 8 81 -7 5 -24 13 -38 16 -24 7 -24 6 3 -9z"/>
<path d="M3058 358 c20 -20 14 -65 -10 -82 -12 -9 -17 -16 -10 -16 19 0 52 38
52 59 0 19 -24 51 -38 51 -3 0 -1 -5 6 -12z"/>
</g>
</svg>
